<?xml version="1.0" encoding="UTF-8"?>
<svg xmlns="http://www.w3.org/2000/svg" width="1360" viewBox="0 0 680 480" role="img">
<title>GoatBand MVP-1 Tinkercad-style breadboard layout</title>
<desc>Photorealistic top-down view of the prototype build.</desc>
<defs>
<linearGradient id="boardBlue" x1="0" y1="0" x2="0" y2="1"><stop offset="0%" stop-color="#1B4D74"/><stop offset="50%" stop-color="#0E3A5F"/><stop offset="100%" stop-color="#082A47"/></linearGradient>
<linearGradient id="bbWhite" x1="0" y1="0" x2="0" y2="1"><stop offset="0%" stop-color="#FAFAF7"/><stop offset="50%" stop-color="#EFEEE6"/><stop offset="100%" stop-color="#DDDCD2"/></linearGradient>
<linearGradient id="cellPink" x1="0" y1="0" x2="0" y2="1"><stop offset="0%" stop-color="#D8B0E0"/><stop offset="50%" stop-color="#B888C2"/><stop offset="100%" stop-color="#8E5F9A"/></linearGradient>
<linearGradient id="metalCap" x1="0" y1="0" x2="0" y2="1"><stop offset="0%" stop-color="#F0EFEA"/><stop offset="50%" stop-color="#B8B6AE"/><stop offset="100%" stop-color="#7A786E"/></linearGradient>
<linearGradient id="redChip" x1="0" y1="0" x2="0" y2="1"><stop offset="0%" stop-color="#C9342B"/><stop offset="100%" stop-color="#7E1F19"/></linearGradient>
<linearGradient id="blueChip" x1="0" y1="0" x2="0" y2="1"><stop offset="0%" stop-color="#3471B5"/><stop offset="100%" stop-color="#1E4A7E"/></linearGradient>
<linearGradient id="metalBlock" x1="0" y1="0" x2="0" y2="1"><stop offset="0%" stop-color="#A8A6A0"/><stop offset="100%" stop-color="#5C5B57"/></linearGradient>
<radialGradient id="hole" cx="50%" cy="40%" r="60%"><stop offset="0%" stop-color="#666"/><stop offset="100%" stop-color="#1A1A1A"/></radialGradient>
<radialGradient id="esp32SoC" cx="40%" cy="35%" r="70%"><stop offset="0%" stop-color="#3a3936"/><stop offset="100%" stop-color="#0e0d0c"/></radialGradient>
<filter id="softShadow" x="-10%" y="-10%" width="120%" height="130%"><feGaussianBlur stdDeviation="2"/></filter>
</defs>
<rect x="0" y="0" width="680" height="480" fill="#F4F2EB"/>
<g transform="translate(20,160)">
<rect x="6" y="6" width="160" height="220" rx="6" fill="#000" opacity="0.18" filter="url(#softShadow)"/>
<rect x="0" y="0" width="160" height="220" rx="6" fill="url(#boardBlue)"/>
<rect x="0" y="0" width="160" height="220" rx="6" fill="none" stroke="#04223C" stroke-width="0.8"/>
<circle cx="8" cy="8" r="3" fill="#0A2D4D" stroke="#5C8FB8" stroke-width="0.4"/>
<circle cx="152" cy="8" r="3" fill="#0A2D4D" stroke="#5C8FB8" stroke-width="0.4"/>
<circle cx="8" cy="212" r="3" fill="#0A2D4D" stroke="#5C8FB8" stroke-width="0.4"/>
<circle cx="152" cy="212" r="3" fill="#0A2D4D" stroke="#5C8FB8" stroke-width="0.4"/>
<rect x="20" y="14" width="120" height="18" rx="2" fill="#E8E5DA"/>
<text x="80" y="26" text-anchor="middle" font-family="Arial" font-size="9" font-weight="bold" fill="#1F1E1B">ESP32 NodeMCU-32S</text>
<rect x="55" y="40" width="50" height="40" rx="2" fill="url(#esp32SoC)"/>
<text x="80" y="60" text-anchor="middle" font-family="Arial" font-size="6" fill="#aaa">ESP32</text>
<text x="80" y="70" text-anchor="middle" font-family="Arial" font-size="5" fill="#888">WROOM-32</text>
<rect x="60" y="88" width="40" height="20" rx="1" fill="#9C9A92"/>
<rect x="64" y="91" width="32" height="14" rx="0.5" fill="#5C5B57"/>
<text x="80" y="102" text-anchor="middle" font-family="Arial" font-size="4" fill="#ddd">USB</text>
<g fill="#D9C56A" stroke="#7A6919" stroke-width="0.3">
<circle cx="6" cy="50" r="2"/><circle cx="6" cy="62" r="2"/><circle cx="6" cy="74" r="2"/><circle cx="6" cy="86" r="2"/><circle cx="6" cy="98" r="2"/><circle cx="6" cy="110" r="2"/><circle cx="6" cy="122" r="2"/><circle cx="6" cy="134" r="2"/><circle cx="6" cy="146" r="2"/><circle cx="6" cy="158" r="2"/><circle cx="6" cy="170" r="2"/><circle cx="6" cy="182" r="2"/><circle cx="6" cy="194" r="2"/><circle cx="6" cy="206" r="2"/>
<circle cx="154" cy="50" r="2"/><circle cx="154" cy="62" r="2"/><circle cx="154" cy="74" r="2"/><circle cx="154" cy="86" r="2"/><circle cx="154" cy="98" r="2"/><circle cx="154" cy="110" r="2"/><circle cx="154" cy="122" r="2"/><circle cx="154" cy="134" r="2"/><circle cx="154" cy="146" r="2"/><circle cx="154" cy="158" r="2"/><circle cx="154" cy="170" r="2"/><circle cx="154" cy="182" r="2"/><circle cx="154" cy="194" r="2"/><circle cx="154" cy="206" r="2"/>
</g>
<text x="14" y="52" font-family="Arial" font-size="3.5" fill="#a8c4d8">3V3</text>
<text x="14" y="64" font-family="Arial" font-size="3.5" fill="#a8c4d8">GND</text>
<text x="14" y="124" font-family="Arial" font-size="3.5" fill="#a8c4d8">G35</text>
<text x="14" y="208" font-family="Arial" font-size="3.5" fill="#a8c4d8">GND</text>
<text x="138" y="124" font-family="Arial" font-size="3.5" fill="#a8c4d8" text-anchor="end">G22</text>
<text x="138" y="136" font-family="Arial" font-size="3.5" fill="#a8c4d8" text-anchor="end">G21</text>
<text x="138" y="184" font-family="Arial" font-size="3.5" fill="#a8c4d8" text-anchor="end">G4</text>
</g>
<g transform="translate(210,80)">
<rect x="6" y="6" width="320" height="320" rx="8" fill="#000" opacity="0.15" filter="url(#softShadow)"/>
<rect x="0" y="0" width="320" height="320" rx="8" fill="url(#bbWhite)"/>
<line x1="12" y1="20" x2="308" y2="20" stroke="#D34D3F" stroke-width="0.6" opacity="0.85"/>
<text x="6" y="22" font-family="Arial" font-size="6" fill="#D34D3F" font-weight="bold">+</text>
<line x1="12" y1="38" x2="308" y2="38" stroke="#3568AC" stroke-width="0.6" opacity="0.85"/>
<text x="6" y="40" font-family="Arial" font-size="6" fill="#3568AC" font-weight="bold">-</text>
<line x1="12" y1="282" x2="308" y2="282" stroke="#D34D3F" stroke-width="0.6" opacity="0.85"/>
<text x="6" y="284" font-family="Arial" font-size="6" fill="#D34D3F" font-weight="bold">+</text>
<line x1="12" y1="300" x2="308" y2="300" stroke="#3568AC" stroke-width="0.6" opacity="0.85"/>
<text x="6" y="302" font-family="Arial" font-size="6" fill="#3568AC" font-weight="bold">-</text>
<line x1="0" y1="160" x2="320" y2="160" stroke="#C5C3B7" stroke-width="6"/>
<g transform="translate(35,52)">
<rect x="0" y="0" width="42" height="32" rx="2" fill="url(#blueChip)"/>
<text x="21" y="13" text-anchor="middle" font-family="Arial" font-size="4" fill="#9CD0F0" font-weight="bold">MPU-6050</text>
<text x="21" y="28" text-anchor="middle" font-family="Arial" font-size="3.5" fill="#cce4f5">GY-521</text>
</g>
<g transform="translate(118,56)">
<rect x="0" y="0" width="38" height="26" rx="2" fill="url(#redChip)"/>
<text x="19" y="10" text-anchor="middle" font-family="Arial" font-size="4" fill="#FFD9A0" font-weight="bold">TP4056</text>
<rect x="4" y="15" width="6" height="6" rx="1" fill="#0E1A24"/>
</g>
<g transform="translate(190,46)">
<ellipse cx="0" cy="0" rx="6" ry="6" fill="url(#metalCap)"/>
<text x="0" y="1.5" text-anchor="middle" font-family="Arial" font-size="3" fill="#1F1E1B">DS18B20</text>
<line x1="-2" y1="6" x2="-2" y2="48" stroke="#3568AC" stroke-width="0.8"/>
<line x1="0" y1="6" x2="0" y2="48" stroke="#D34D3F" stroke-width="0.8"/>
<line x1="2" y1="6" x2="2" y2="48" stroke="#D9C56A" stroke-width="0.8"/>
</g>
<g transform="translate(218,154)"><rect x="-2" y="-3" width="14" height="10" rx="1" fill="#1F1E1B"/><text x="5" y="3.5" text-anchor="middle" font-family="Arial" font-size="3" fill="#D9C56A">4.7k</text></g>
<g transform="translate(60,182)"><rect x="-2" y="-3" width="14" height="10" rx="1" fill="#1F1E1B"/><text x="5" y="3.5" text-anchor="middle" font-family="Arial" font-size="3" fill="#D9C56A">100k</text></g>
<g transform="translate(60,210)"><rect x="-2" y="-3" width="14" height="10" rx="1" fill="#1F1E1B"/><text x="5" y="3.5" text-anchor="middle" font-family="Arial" font-size="3" fill="#D9C56A">100k</text></g>
<g transform="translate(245,230)">
<rect x="-3" y="-2" width="20" height="14" rx="2" fill="#1F1E1B"/>
<rect x="2" y="-7" width="10" height="6" rx="1" fill="#5C5B57"/>
<text x="7" y="6" text-anchor="middle" font-family="Arial" font-size="3" fill="#fff">SW</text>
</g>
</g>
<g transform="translate(560,90)">
<rect x="0" y="0" width="100" height="280" rx="6" fill="#1F1E1B"/>
<text x="50" y="18" text-anchor="middle" font-family="Arial" font-size="7" fill="#D9C56A" font-weight="bold">18650 holder</text>
<g transform="translate(50,55)">
<rect x="-22" y="-22" width="44" height="120" rx="22" fill="url(#cellPink)"/>
<text x="0" y="20" text-anchor="middle" font-family="Arial" font-size="6" fill="#3D1A4A" font-weight="bold">18650</text>
<text x="0" y="32" text-anchor="middle" font-family="Arial" font-size="5" fill="#3D1A4A">2600 mAh</text>
<text x="0" y="44" text-anchor="middle" font-family="Arial" font-size="5" fill="#3D1A4A">3.7V</text>
</g>
</g>
<path d="M 174 212 Q 195 212 200 132 T 230 102" stroke="#D34D3F" stroke-width="2" fill="none" stroke-linecap="round"/>
<path d="M 174 224 Q 195 224 200 138 T 230 120" stroke="#1F1E1B" stroke-width="2" fill="none" stroke-linecap="round"/>
<path d="M 174 284 Q 195 284 215 252 T 230 122" stroke="#3568AC" stroke-width="2" fill="none" stroke-linecap="round"/>
<path d="M 174 296 Q 195 296 220 270 T 230 134" stroke="#0F6E56" stroke-width="2" fill="none" stroke-linecap="round"/>
<path d="M 174 360 Q 200 360 230 264" stroke="#7F77DD" stroke-width="2" fill="none" stroke-linecap="round"/>
<path d="M 376 132 Q 405 132 430 132" stroke="#D34D3F" stroke-width="2" fill="none" stroke-linecap="round"/>
<path d="M 376 144 Q 405 144 425 168" stroke="#1F1E1B" stroke-width="2" fill="none" stroke-linecap="round"/>
<text x="340" y="40" text-anchor="middle" font-family="Arial" font-size="14" font-weight="bold" fill="#1F1E1B">GoatBand MVP-1 — Tinkercad layout</text>
<text x="340" y="58" text-anchor="middle" font-family="Arial" font-size="10" fill="#5F5E5A">ESP32 NodeMCU-32S · MPU-6050 · DS18B20 · TP4056 · 18650</text>
<g transform="translate(20,418)">
<rect x="0" y="0" width="640" height="50" rx="6" fill="#FAFAF7" stroke="#D3D1C7" stroke-width="0.5"/>
<text x="10" y="14" font-family="Arial" font-size="9" font-weight="bold" fill="#1F1E1B">Wire colors</text>
<line x1="10" y1="26" x2="34" y2="26" stroke="#D34D3F" stroke-width="2" stroke-linecap="round"/>
<text x="40" y="29" font-family="Arial" font-size="8" fill="#444">3V3 / B+ power</text>
<line x1="130" y1="26" x2="154" y2="26" stroke="#1F1E1B" stroke-width="2" stroke-linecap="round"/>
<text x="160" y="29" font-family="Arial" font-size="8" fill="#444">GND / B−</text>
<line x1="225" y1="26" x2="249" y2="26" stroke="#3568AC" stroke-width="2" stroke-linecap="round"/>
<text x="255" y="29" font-family="Arial" font-size="8" fill="#444">I²C SDA (G21)</text>
<line x1="345" y1="26" x2="369" y2="26" stroke="#0F6E56" stroke-width="2" stroke-linecap="round"/>
<text x="375" y="29" font-family="Arial" font-size="8" fill="#444">I²C SCL (G22)</text>
<line x1="465" y1="26" x2="489" y2="26" stroke="#7F77DD" stroke-width="2" stroke-linecap="round"/>
<text x="495" y="29" font-family="Arial" font-size="8" fill="#444">1-Wire DATA (G4)</text>
</g>
</svg>
